<svg xmlns="http://www.w3.org/2000/svg" width="48" height="48" viewBox="0 0 24 24" fill="none" stroke="#dc2626" stroke-width="1.5" stroke-linecap="round" stroke-linejoin="round">
  <path d="M12 21.35C10.55 20.5 6 16.5 6 12C6 8.5 9 4.5 12 3C15 4.5 18 8.5 18 12C18 16.5 13.45 20.5 12 21.35Z"/>
  <path d="M12 21.35C10.55 20.5 6 16.5 6 12C6 8.5 9 4.5 12 3C15 4.5 18 8.5 18 12C18 16.5 13.45 20.5 12 21.35Z" fill="#dc2626" fill-opacity="0.2"/>
  <path d="M12 18C10.5 17 8 14 8 11C8 9 9.5 7 12 6C14.5 7 16 9 16 11C16 14 13.5 17 12 18Z" fill="#dc2626" fill-opacity="0.15"/>
</svg>
